<svg version="1.0" xmlns="http://www.w3.org/2000/svg" width="500.000000" height="500.000000" preserveAspectRatio="xMidYMid meet"><rect id="backgroundrect" width="100%" height="100%" x="0" y="0" fill="none" stroke="none"/>
<metadata>
Created by potrace 1.15, written by Peter Selinger 2001-2017
</metadata>

<g class="currentLayer" style=""><title>Layer 1</title><g transform="translate(0, 500) scale(0.1, -0.1)" fill="#eb1a1a" stroke="none" id="svg_1" class="" fill-opacity="1" opacity="1">
<path d="M2726 3975 c-227 -43 -463 -155 -691 -328 -220 -168 -624 -617 -769 -855 -112 -185 -135 -369 -70 -575 58 -184 151 -326 323 -497 283 -282 660 -498 996 -571 134 -29 275 -35 359 -15 199 47 399 196 506 376 77 129 111 261 125 485 9 145 31 312 70 540 68 389 80 554 55 720 -35 231 -145 441 -297 568 -158 131 -398 191 -607 152z" id="svg_2" fill="#eb1a1a" fill-opacity="1" opacity="1"/>
</g></g></svg>